<?xml version="1.0" encoding="UTF-8" standalone="no"?>
<svg
        xmlns:dc="http://purl.org/dc/elements/1.1/"
        xmlns:cc="http://creativecommons.org/ns#"
        xmlns:rdf="http://www.w3.org/1999/02/22-rdf-syntax-ns#"
        xmlns:sodipodi="http://sodipodi.sourceforge.net/DTD/sodipodi-0.dtd"
        xmlns:inkscape="http://www.inkscape.org/namespaces/inkscape"
        xmlns="http://www.w3.org/2000/svg"
        width="15.999999"
        height="15.999999"
        viewBox="0 0 15.999999 15.999999"
        version="1.1"
        id="svg8"
        sodipodi:docname="mogiSubmoduleCheckout_dark.svg"
        inkscape:version="0.92.4 (5da689c313, 2019-01-14)">
    <metadata
            id="metadata14">
        <rdf:RDF>
            <cc:Work
                    rdf:about="">
                <dc:format>image/svg+xml</dc:format>
                <dc:type
                        rdf:resource="http://purl.org/dc/dcmitype/StillImage"/>
            </cc:Work>
        </rdf:RDF>
    </metadata>
    <defs
            id="defs12"/>
    <sodipodi:namedview
            pagecolor="#ffffff"
            bordercolor="#666666"
            borderopacity="1"
            objecttolerance="10"
            gridtolerance="10"
            guidetolerance="10"
            inkscape:pageopacity="0"
            inkscape:pageshadow="2"
            inkscape:window-width="1142"
            inkscape:window-height="765"
            id="namedview10"
            showgrid="false"
            inkscape:zoom="10.190974"
            inkscape:cx="8.5190256"
            inkscape:cy="17.802571"
            inkscape:window-x="2255"
            inkscape:window-y="104"
            inkscape:window-maximized="0"
            inkscape:current-layer="svg8"/>
    <g
            id="mogiSubmoduleCheckout_dark"
            transform="matrix(0.13740458,0,0,0.13740458,3.939145,-2.3847643)">
        <g
                id="g34"
                transform="translate(-35.946,10.078)">
            <g
                    id="g13">
                <rect
                        id="canvas_background"
                        width="131"
                        height="131"
                        x="0"
                        y="0"
                        style="fill:none"/>
            </g>
            <g
                    id="g18"
                    transform="translate(25.208,10.083)">
                <path
                        id="svg_1"
                        d="M 83.493,25.915 V 10.79 L 63.326,30.957 83.493,51.123 V 36 a 30.274,30.274 0 0 1 30.25,30.25 29.6,29.6 0 0 1 -3.529,14.117 l 7.361,7.361 A 40.263,40.263 0 0 0 83.493,25.915 Z m 0,70.584 a 30.274,30.274 0 0 1 -30.25,-30.25 29.6,29.6 0 0 1 3.529,-14.117 l -7.361,-7.361 a 40.263,40.263 0 0 0 34.082,61.811 v 15.125 L 103.66,101.54 83.493,81.373 Z"
                        transform="translate(-43.159,-10.79)"
                        inkscape:connector-curvature="0"
                        style="fill:#f0a732"/>
            </g>
        </g>
    </g>
</svg>
