<svg xmlns="http://www.w3.org/2000/svg"
     width="16"
     height="16"
     viewBox="0 0 16 16">

    <path fill="#EDA200" fill-rule="evenodd"
          d="M12.5747152,11.8852806
        C11.4741474,13.1817355 9.83247882,14.0044386 7.99865879,14.0044386
        C5.03907292,14.0044386 2.57997332,11.8615894 2.08820756,9.0427473
        L3.94774327,9.10768372
        C4.43372186,10.8898575 6.06393114,12.2000519 8.00015362,12.2000519
        C9.30149237,12.2000519 10.4645985,11.6082097 11.2349873,10.6790094
        L9.05000019,8.71167959
        L14.0431479,8.44999981
        L14.3048222,13.4430431
        L12.5747152,11.8852806
        Z"
          transform="rotate(-42 8 8)"/>

    <path fill="#389FD6" fill-rule="evenodd"
          d="M12.5747152,11.8852806
        C11.4741474,13.1817355 9.83247882,14.0044386 7.99865879,14.0044386
        C5.03907292,14.0044386 2.57997332,11.8615894 2.08820756,9.0427473
        L3.94774327,9.10768372
        C4.43372186,10.8898575 6.06393114,12.2000519 8.00015362,12.2000519
        C9.30149237,12.2000519 10.4645985,11.6082097 11.2349873,10.6790094
        L9.05000019,8.71167959
        L14.0431479,8.44999981
        L14.3048222,13.4430431
        L12.5747152,11.8852806
        Z"
          transform="rotate(138 8 8)"/>

</svg>