<?xml version="1.0" encoding="UTF-8" standalone="no"?>
<svg
        xmlns:dc="http://purl.org/dc/elements/1.1/"
        xmlns:cc="http://creativecommons.org/ns#"
        xmlns:rdf="http://www.w3.org/1999/02/22-rdf-syntax-ns#"
        xmlns:sodipodi="http://sodipodi.sourceforge.net/DTD/sodipodi-0.dtd"
        xmlns:inkscape="http://www.inkscape.org/namespaces/inkscape"
        xmlns="http://www.w3.org/2000/svg"
        width="39.999999"
        height="39.999999"
        viewBox="0 0 39.999999 39.999999"
        version="1.1"
        id="svg20"
        sodipodi:docname="pluginIcon.svg"
        inkscape:version="0.92.4 (5da689c313, 2019-01-14)">
  <metadata
          id="metadata26">
    <rdf:RDF>
      <cc:Work
              rdf:about="">
        <dc:format>image/svg+xml</dc:format>
        <dc:type
                rdf:resource="http://purl.org/dc/dcmitype/StillImage"/>
      </cc:Work>
    </rdf:RDF>
  </metadata>
  <defs
          id="defs24"/>
  <sodipodi:namedview
          pagecolor="#ffffff"
          bordercolor="#666666"
          borderopacity="1"
          objecttolerance="10"
          gridtolerance="10"
          guidetolerance="10"
          inkscape:pageopacity="0"
          inkscape:pageshadow="2"
          inkscape:window-width="1920"
          inkscape:window-height="1017"
          id="namedview22"
          showgrid="false"
          inkscape:zoom="0.59"
          inkscape:cx="200"
          inkscape:cy="200"
          inkscape:window-x="-8"
          inkscape:window-y="-8"
          inkscape:window-maximized="1"
          inkscape:current-layer="svg20"/>
  <g
          id="pluginIcon"
          transform="matrix(0.1,0,0,0.1,-88.8,-13)">
    <rect
            id="Rectangle_68"
            data-name="Rectangle 68"
            width="400"
            height="400"
            transform="translate(888,130)"
            x="0"
            y="0"
            style="fill:none"/>
    <g
            id="Group_62"
            data-name="Group 62"
            transform="translate(-368,1321.348)">
      <g
              id="Subtraction_1"
              data-name="Subtraction 1"
              transform="translate(1276,-1171.348)"
              style="fill:#389fd6">
        <path
                d="M 285.10001,358.00101 74.900002,358 V 284.02347 C 95.115997,278.33112 109.1,259.95084 109.1,238.78709 c 0,-25.9159 -21.084093,-47 -47.000002,-47 -25.915908,0 -46.999998,21.0841 -46.999998,47 0,21.16375 13.984044,39.54403 34.199999,45.23638 v 73.97159 c -6.23336,-0.0882 -12.279964,-1.35413 -17.983045,-3.76627 -5.71559,-2.41751 -10.849181,-5.87875 -15.258091,-10.28757 C 11.649955,339.53238 8.1887274,334.39893 5.7712727,328.68347 3.2688181,322.76715 2,316.48132 2,310.00055 V 50.000412 C 2,43.519413 3.2688637,37.233414 5.7712727,31.316957 8.1887274,25.601368 11.649955,20.467821 16.058908,16.058912 20.467817,11.649958 25.601364,8.1887312 31.316954,5.7712765 37.23341,3.2688673 43.519409,2.0000036 50.000408,2.0000036 H 162.25 V 49.455009 C 144.69792,56.622898 133,73.940781 133,92.987091 c 0,19.046319 11.69792,36.364239 29.25,43.532139 V 195.255 c -17.55208,7.1679 -29.25,24.48578 -29.25,43.53209 0,25.91591 21.08409,47.00005 47,47.00005 25.91591,0 47,-21.08414 47,-47.00005 0,-19.04631 -11.69792,-36.36419 -29.25,-43.53209 V 136.51923 C 215.30208,129.35133 227,112.03345 227,92.987091 227,73.940781 215.30208,56.622898 197.75,49.455009 V 2.0000036 h 112.25055 c 6.48077,0 12.7666,1.2688181 18.68286,3.7712729 5.71549,2.4174547 10.84894,5.8786815 15.25781,10.2876355 4.40882,4.408863 7.87006,9.542456 10.28754,15.258045 C 356.73117,37.233459 358,43.519505 358,50.000412 V 310.00055 c 0,6.48068 -1.26883,12.76654 -3.77124,18.68292 -2.41748,5.71546 -5.87872,10.84894 -10.28754,15.25775 -4.40881,4.40882 -9.54232,7.87006 -15.25781,10.28757 -5.70328,2.41229 -11.74985,3.67822 -17.9834,3.76627 v -73.97159 c 20.21598,-5.69235 34.19998,-24.07263 34.19998,-45.23638 0,-25.9159 -21.08407,-47 -47,-47 -25.91589,0 -47,21.0841 -47,47 0,21.16375 13.98404,39.54403 34.20002,45.23638 z"
                id="path3"
                inkscape:connector-curvature="0"
                style="stroke:none"/>
        <path
                d="m 283.10001,356.00098 v -70.48709 c -20.28919,-6.39136 -34.20002,-25.17481 -34.20002,-46.72678 0,-27.01871 21.9813,-49 49,-49 27.01871,0 49,21.98129 49,49 0,21.55191 -13.91079,40.33536 -34.19998,46.72678 v 70.40896 c 5.258,-0.3017 10.36066,-1.48739 15.20429,-3.5361 5.47711,-2.31665 10.39691,-5.63394 14.62274,-9.85971 4.22577,-4.22583 7.54306,-9.14563 9.85971,-14.62268 C 354.78436,322.23581 356,316.2121 356,310.00055 V 50.000404 c 0,-6.21175 -1.21564,-12.235702 -3.61319,-17.90435 -2.31671,-5.47715 -5.634,-10.397051 -9.85977,-14.62295 -4.2258,-4.225851 -9.1456,-7.5431504 -14.62274,-9.8598003 C 322.2359,5.2157035 316.21219,4.0000033 310.00055,4.0000033 H 199.75 V 48.131783 C 217.35583,55.901611 229,73.583832 229,92.987106 229,112.39037 217.35583,130.0726 199.75,137.84242 v 56.08936 c 17.60583,7.76983 29.25,25.45205 29.25,44.85533 0,27.01871 -21.98129,49.00003 -49,49.00003 -27.01871,0 -49,-21.98132 -49,-49.00003 0,-19.40328 11.64417,-37.0855 29.25,-44.85533 V 137.84242 C 142.64417,130.0726 131,112.39037 131,92.987106 131,73.583832 142.64417,55.901611 160.25,48.131783 V 4.0000033 H 50.000401 c -6.211899,0 -12.235753,1.2157002 -17.9044,3.6133504 C 26.6189,9.929904 21.699051,13.247204 17.47315,17.473154 13.2472,21.699053 9.9299002,26.618904 7.6132998,32.096054 5.2157001,37.764652 4,43.788502 4,50.000404 V 310.00055 c 0,6.21164 1.2157001,12.23535 3.6132998,17.90381 2.3166004,5.47705 5.6339002,10.39679 9.8598012,14.62265 4.225898,4.2258 9.145799,7.54309 14.622949,9.85971 4.843472,2.04858 9.946167,3.23428 15.203949,3.5361 V 285.51389 C 27.010817,279.12253 13.1,260.33908 13.1,238.78711 c 0,-27.01871 21.981299,-49 48.999998,-49 27.0187,0 49.000002,21.98129 49.000002,49 0,21.55197 -13.910814,40.33539 -34.199998,46.72678 v 70.48614 l 206.200008,9.5e-4 m 4,4.00003 h -10e-4 L 72.900002,360 V 282.483 C 93.036797,277.52332 107.1,259.55536 107.1,238.78711 c 0,-24.81311 -20.186899,-45 -45.000002,-45 -24.813098,0 -44.999998,20.18689 -44.999998,45 0,20.76788 14.063549,38.7363 34.199999,43.69589 V 360 h -1.299598 c -6.75005,0 -13.298199,-1.32199 -19.462552,-3.92926 C 24.583851,353.55246 19.236601,349.94727 14.6447,345.35547 10.05285,340.76364 6.4475999,335.4165 3.9293001,329.46255 1.322,323.2984 0,316.7504 0,310.00055 V 50.000404 C 0,43.250305 1.322,36.702152 3.9293001,30.537853 6.4475498,24.583853 10.05275,19.236654 14.6447,14.644704 19.23665,10.052753 24.583851,6.4475536 30.537849,3.9293036 36.702148,1.3220035 43.250351,3.540039e-6 50.000401,3.540039e-6 H 164.25 V 50.820305 C 146.75439,57.358505 135,74.30365 135,92.987106 c 0,18.683144 11.7547,35.628694 29.25,42.166794 v 61.4664 c -17.49561,6.53821 -29.25,23.48335 -29.25,42.16681 0,24.81308 20.1869,45.00003 45,45.00003 24.8131,0 45,-20.18695 45,-45.00003 0,-18.68321 -11.7547,-35.62871 -29.25,-42.16681 V 135.1539 C 213.24561,128.61571 225,111.6706 225,92.987106 225,74.303902 213.2453,57.358402 195.75,50.820305 V 3.540039e-6 h 114.25055 c 6.74985,0 13.29785,1.321999959961 19.462,3.929300059961 5.95395,2.5183001 11.30109,6.1235004 15.89295,10.7154004 4.59174,4.591899 8.19696,9.939149 10.7153,15.893149 C 358.67801,36.702202 360,43.250305 360,50.000404 V 310.00055 c 0,6.74985 -1.32199,13.29779 -3.9292,19.462 -2.51834,5.95386 -6.12356,11.30106 -10.7153,15.89292 -4.59189,4.5918 -9.93909,8.19699 -15.89295,10.71527 C 323.2984,358.67801 316.7504,360 310.00055,360 h -1.30054 v -77.517 c 20.13675,-4.95968 34.19998,-22.92764 34.19998,-43.69589 0,-24.81311 -20.18689,-45 -45,-45 -24.81308,0 -45,20.18689 -45,45 0,20.76788 14.06357,38.7363 34.20002,43.69589 V 360 Z"
                id="path5"
                inkscape:connector-curvature="0"
                style="fill:#707070;stroke:none"/>
      </g>
      <g
              id="Ellipse_50"
              data-name="Ellipse 50"
              transform="translate(1550.5,-955.935)"
              style="fill:#389fd6;stroke:#707070;stroke-width:4">
        <circle
                cx="23.4"
                cy="23.4"
                r="23.4"
                id="circle8"
                style="stroke:none"/>
        <circle
                cx="23.4"
                cy="23.4"
                r="21.4"
                id="circle10"
                style="fill:none"/>
      </g>
      <g
              id="Ellipse_52"
              data-name="Ellipse 52"
              transform="translate(1314.7,-955.935)"
              style="fill:#389fd6;stroke:#707070;stroke-width:4">
        <circle
                cx="23.4"
                cy="23.4"
                r="23.4"
                id="circle13"
                style="stroke:none"/>
        <circle
                cx="23.4"
                cy="23.4"
                r="21.4"
                id="circle15"
                style="fill:none"/>
      </g>
    </g>
  </g>
</svg>
